<svg width="15" height="17" viewBox="0 0 15 17" fill="none" xmlns="http://www.w3.org/2000/svg">
<path d="M4.91667 3.25L7.41667 0.75M7.41667 0.75L9.91667 3.25M7.41667 0.75V9.08333M3.25019 6.58333C2.47362 6.58333 2.08534 6.58333 1.77905 6.7102C1.37067 6.87936 1.04602 7.20401 0.876867 7.61239C0.75 7.91867 0.75 8.30676 0.75 9.08333V13.0833C0.75 14.0168 0.75 14.4831 0.931656 14.8397C1.09144 15.1533 1.34623 15.4087 1.65983 15.5685C2.016 15.75 2.48249 15.75 3.41409 15.75H11.4196C12.3512 15.75 12.8171 15.75 13.1732 15.5685C13.4868 15.4087 13.7421 15.1533 13.9019 14.8397C14.0833 14.4835 14.0833 14.0175 14.0833 13.0859V9.08333C14.0833 8.30677 14.0832 7.91867 13.9564 7.61239C13.7872 7.20401 13.4629 6.87936 13.0545 6.7102C12.7482 6.58333 12.3599 6.58333 11.5833 6.58333" stroke="black" stroke-width="1.5" stroke-linecap="round" stroke-linejoin="round"/>
</svg>
