<svg width="20" height="17" viewBox="0 0 20 17" fill="none" xmlns="http://www.w3.org/2000/svg">
<path d="M0.75 10.7502V12.55C0.75 13.6701 0.75 14.2298 0.967987 14.6576C1.15973 15.0339 1.46547 15.3405 1.8418 15.5322C2.2692 15.75 2.82899 15.75 3.94691 15.75H18.7502M0.75 10.7502V0.75M0.75 10.7502L4.6034 7.53906L4.60658 7.53651C5.30366 6.95561 5.65288 6.66459 6.03154 6.54639C6.47887 6.40675 6.96071 6.42884 7.39355 6.6084C7.7605 6.76062 8.08225 7.08238 8.72576 7.72589L8.73222 7.73234C9.38571 8.38584 9.71333 8.71346 10.0862 8.86535C10.5274 9.04508 11.0185 9.06056 11.4707 8.91057C11.8541 8.7834 12.2042 8.47755 12.9043 7.86496L18.75 2.75" stroke="#71717A" stroke-width="1.5" stroke-linecap="round" stroke-linejoin="round"/>
</svg>
