<svg width="20" height="20" viewBox="0 0 20 20" fill="none" xmlns="http://www.w3.org/2000/svg">
<path d="M6.75 11.25L12.75 14.25M12.75 5.25L6.75 8.25M15.75 18.75C14.0931 18.75 12.75 17.4069 12.75 15.75C12.75 14.0931 14.0931 12.75 15.75 12.75C17.4069 12.75 18.75 14.0931 18.75 15.75C18.75 17.4069 17.4069 18.75 15.75 18.75ZM3.75 12.75C2.09315 12.75 0.75 11.4069 0.75 9.75C0.75 8.09315 2.09315 6.75 3.75 6.75C5.40685 6.75 6.75 8.09315 6.75 9.75C6.75 11.4069 5.40685 12.75 3.75 12.75ZM15.75 6.75C14.0931 6.75 12.75 5.40685 12.75 3.75C12.75 2.09315 14.0931 0.75 15.75 0.75C17.4069 0.75 18.75 2.09315 18.75 3.75C18.75 5.40685 17.4069 6.75 15.75 6.75Z" stroke="#71717A" stroke-width="1.5" stroke-linecap="round" stroke-linejoin="round"/>
</svg>
