<svg width="18" height="18" viewBox="0 0 18 18" fill="none" xmlns="http://www.w3.org/2000/svg">
<path d="M16.7501 14.0925V8.54451C16.7501 8.01017 16.7497 7.74286 16.6847 7.49422C16.6271 7.27387 16.5326 7.06535 16.4047 6.87693C16.2604 6.6643 16.0597 6.48797 15.6575 6.13611L10.8575 1.93611C10.1109 1.28283 9.73763 0.956349 9.3175 0.832107C8.94731 0.722631 8.55273 0.722631 8.18254 0.832107C7.76273 0.956255 7.38997 1.28242 6.64448 1.93472L1.8429 6.13611C1.44076 6.48798 1.24016 6.6643 1.09583 6.87693C0.967914 7.06536 0.87267 7.27387 0.815093 7.49422C0.750122 7.74286 0.750122 8.01017 0.750122 8.54451V14.0925C0.750122 15.0243 0.750122 15.4901 0.902363 15.8576C1.10535 16.3477 1.49444 16.7375 1.9845 16.9405C2.35204 17.0927 2.81798 17.0927 3.74986 17.0927C4.68175 17.0927 5.1482 17.0927 5.51575 16.9405C6.0058 16.7375 6.39479 16.3478 6.59778 15.8577C6.75002 15.4902 6.75012 15.0242 6.75012 14.0924V13.0924C6.75012 11.9878 7.64555 11.0924 8.75012 11.0924C9.85469 11.0924 10.7501 11.9878 10.7501 13.0924V14.0924C10.7501 15.0242 10.7501 15.4902 10.9024 15.8577C11.1054 16.3478 11.4944 16.7375 11.9845 16.9405C12.352 17.0927 12.818 17.0927 13.7499 17.0927C14.6817 17.0927 15.1482 17.0927 15.5157 16.9405C16.0058 16.7375 16.3948 16.3477 16.5978 15.8576C16.75 15.4901 16.7501 15.0243 16.7501 14.0925Z" stroke="#71717A" stroke-width="1.5" stroke-linecap="round" stroke-linejoin="round"/>
</svg>
