<svg width="20" height="18" viewBox="0 0 20 18" fill="none" xmlns="http://www.w3.org/2000/svg">
<path d="M0.75005 13.7501C0.75 13.6855 0.75 13.6189 0.75 13.5502V3.9502C0.75 2.83009 0.75 2.26962 0.967987 1.8418C1.15973 1.46547 1.46547 1.15973 1.8418 0.967987C2.26962 0.75 2.83009 0.75 3.9502 0.75H15.5502C16.6703 0.75 17.2301 0.75 17.6579 0.967987C18.0342 1.15973 18.3405 1.46547 18.5322 1.8418C18.75 2.2692 18.75 2.82899 18.75 3.94691V13.5531C18.75 14.0381 18.75 14.4179 18.7322 14.7274M0.75005 13.7501C0.75082 14.7384 0.763371 15.2558 0.967987 15.6574C1.15973 16.0337 1.46547 16.3405 1.8418 16.5322C2.2692 16.75 2.82899 16.75 3.94691 16.75H15.5536C16.6715 16.75 17.2305 16.75 17.6579 16.5322C18.0342 16.3405 18.3405 16.0337 18.5322 15.6574C18.6555 15.4154 18.709 15.1313 18.7322 14.7274M0.75005 13.7501L5.51798 8.1875L5.51939 8.18596C5.94227 7.6926 6.15406 7.44551 6.40527 7.35645C6.62594 7.27821 6.86686 7.28004 7.08643 7.36133C7.33664 7.45397 7.54506 7.70387 7.96191 8.2041L10.6331 11.4095C11.019 11.8726 11.213 12.1054 11.4486 12.1989C11.6565 12.2813 11.8857 12.2906 12.1001 12.2273C12.3442 12.1553 12.5591 11.9404 12.9888 11.5107L13.4858 11.0137C13.9233 10.5762 14.1421 10.3576 14.3897 10.2861C14.6071 10.2234 14.8396 10.2369 15.0488 10.3232C15.287 10.4216 15.4802 10.6624 15.8667 11.1455L18.7322 14.7274M18.7322 14.7274L18.75 14.7496M12.75 6.75C12.1977 6.75 11.75 6.30228 11.75 5.75C11.75 5.19772 12.1977 4.75 12.75 4.75C13.3023 4.75 13.75 5.19772 13.75 5.75C13.75 6.30228 13.3023 6.75 12.75 6.75Z" stroke="#71717A" stroke-width="1.5" stroke-linecap="round" stroke-linejoin="round"/>
</svg>
