<svg width="18" height="20" viewBox="0 0 18 20" fill="none" xmlns="http://www.w3.org/2000/svg">
<path d="M9.67578 18.3814C11.7819 17.4281 16.75 14.4833 16.75 7.91505V3.94691C16.75 2.82899 16.75 2.2692 16.5322 1.8418C16.3405 1.46547 16.0337 1.15973 15.6574 0.967987C15.2296 0.75 14.6703 0.75 13.5502 0.75H3.9502C2.83009 0.75 2.26962 0.75 1.8418 0.967987C1.46547 1.15973 1.15973 1.46547 0.967987 1.8418C0.75 2.26962 0.75 2.83009 0.75 3.9502V7.91504C0.75 14.4833 5.7178 17.4281 7.82395 18.3814C8.04723 18.4825 8.15942 18.5329 8.41214 18.5763C8.57154 18.6037 8.92946 18.6037 9.08887 18.5763C9.34071 18.5331 9.45173 18.4828 9.67348 18.3824L9.67578 18.3814Z" stroke="#71717A" stroke-width="1.5" stroke-linecap="round" stroke-linejoin="round"/>
</svg>
