<svg width="20" height="17" viewBox="0 0 20 17" fill="none" xmlns="http://www.w3.org/2000/svg">
<path d="M14.75 15.75C14.75 14.0931 12.5114 12.75 9.75 12.75C6.98858 12.75 4.75 14.0931 4.75 15.75M18.75 12.7504C18.75 11.5202 17.5159 10.4629 15.75 10M0.75 12.7504C0.75 11.5202 1.9841 10.4629 3.75 10M15.75 5.98611C16.3637 5.43679 16.75 4.6385 16.75 3.75C16.75 2.09315 15.4069 0.75 13.75 0.75C12.9816 0.75 12.2808 1.03885 11.75 1.51389M3.75 5.98611C3.13625 5.43679 2.75 4.6385 2.75 3.75C2.75 2.09315 4.09315 0.75 5.75 0.75C6.51835 0.75 7.21924 1.03885 7.75 1.51389M9.75 9.75C8.09315 9.75 6.75 8.40685 6.75 6.75C6.75 5.09315 8.09315 3.75 9.75 3.75C11.4069 3.75 12.75 5.09315 12.75 6.75C12.75 8.40685 11.4069 9.75 9.75 9.75Z" stroke="#71717A" stroke-width="1.5" stroke-linecap="round" stroke-linejoin="round"/>
</svg>
