<svg width="40" height="40" viewBox="0 0 40 40" fill="none" xmlns="http://www.w3.org/2000/svg">
<path d="M8 26.5C10.6745 26.5 13.4976 28.7894 13.4983 31.9988C13.4983 31.9995 13.4988 32 13.4994 32C13.5001 32 13.5006 31.9995 13.5006 31.9988C13.5013 28.7894 16.3243 26.5 18.9988 26.5H19C16.3255 26.5 13.5024 24.2106 13.5017 21.0012C13.5017 21.0005 13.5012 21 13.5006 21C13.4999 21 13.4994 21.0005 13.4994 21.0012C13.4987 24.2106 10.6757 26.5 8.00115 26.5H8Z" fill="url(#paint0_linear_7772_63848)"/>
<path d="M16 16C19.8902 16 23.9965 19.33 23.9975 23.9983C23.9975 23.9992 23.9982 24 23.9992 24C24.0001 24 24.0008 23.9992 24.0008 23.9983C24.0018 19.33 28.1081 16 31.9983 16H32C28.1098 16 24.0035 12.67 24.0025 8.00169C24.0025 8.00077 24.0018 8 24.0008 8C23.9999 8 23.9992 8.00077 23.9992 8.00169C23.9982 12.67 19.8919 16 16.0017 16H16Z" fill="url(#paint1_linear_7772_63848)"/>
<defs>
<linearGradient id="paint0_linear_7772_63848" x1="8.95307" y1="26.5199" x2="16.3195" y2="24.0379" gradientUnits="userSpaceOnUse">
<stop stop-color="#64C2DB"/>
<stop offset="0.510417" stop-color="#7476ED"/>
<stop offset="1" stop-color="#E56F8C"/>
</linearGradient>
<linearGradient id="paint1_linear_7772_63848" x1="17.3863" y1="16.0289" x2="28.1011" y2="12.4188" gradientUnits="userSpaceOnUse">
<stop stop-color="#64C2DB"/>
<stop offset="0.510417" stop-color="#7476ED"/>
<stop offset="1" stop-color="#E56F8C"/>
</linearGradient>
</defs>
</svg>
